<?xml version="1.0" standalone="no"?><!DOCTYPE svg PUBLIC "-//W3C//DTD SVG 1.1//EN" "http://www.w3.org/Graphics/SVG/1.1/DTD/svg11.dtd"><svg t="1635412723057" class="icon" viewBox="0 0 1024 1024" version="1.1" xmlns="http://www.w3.org/2000/svg" p-id="2419" xmlns:xlink="http://www.w3.org/1999/xlink" width="200" height="200"><defs><style type="text/css"></style></defs><path d="M447.26667121 209.91325181V181.68035026c0-22.24731445 18.16864013-40.46892449 40.46892449-40.46892448 22.24731445 0 40.46892449 18.22161004 40.46892448 40.46892449v28.23290155c117.8577967 19.86367331 186.29477395 126.59781352 186.29477325 255.04956915v155.73120117l82.63288288 70.76764778c13.56026755 22.61810302 13.93105612 39.99219611 0.90048612 62.87514792-12.9776001 22.98889161-36.49618997 25.84926039-62.82217802 25.84926112H240.26070701c-26.32598877 0-49.84457864-2.86036881-62.87514793-25.74332132-12.9776001-22.88295181-12.60681153-40.36298468 0.90048685-62.87514792l1.4301844-2.11879237 80.67299949-68.7018253v-155.73120117c0-128.45175638 68.91370491-235.23886575 186.87744139-255.10253906zM555.11317642 802.32745362c0 37.23776712-30.19278421 80.4611206-67.43055061 80.4611206s-67.4305506-43.22335349-67.43055062-80.4611206H555.11317642z" p-id="2420"></path></svg>
