<?xml version="1.0" standalone="no"?><!DOCTYPE svg PUBLIC "-//W3C//DTD SVG 1.1//EN" "http://www.w3.org/Graphics/SVG/1.1/DTD/svg11.dtd"><svg class="icon" width="200px" height="200.00px" viewBox="0 0 1024 1024" version="1.1" xmlns="http://www.w3.org/2000/svg"><path d="M866.26304 471.3472c20.21376 20.20352 20.21376 52.95104 0 73.1648L548.57728 862.208c-10.09664 10.0864-23.33696 15.14496-36.57728 15.14496s-26.48064-5.04832-36.57728-15.14496L157.73696 544.512c-20.21376-20.21376-20.21376-52.96128 0-73.1648 20.20352-20.20352 52.96128-20.20352 73.1648 0L512 752.44544 793.09824 471.3472C813.30176 451.15392 846.06976 451.15392 866.26304 471.3472zM475.42272 552.66304c10.09664 10.0864 23.33696 15.14496 36.57728 15.14496s26.48064-5.05856 36.57728-15.14496l317.68576-317.68576c20.21376-20.21376 20.21376-52.97152 0-73.17504-20.20352-20.20352-52.96128-20.20352-73.1648 0L512 442.90048 230.90176 161.80224c-20.20352-20.20352-52.96128-20.20352-73.1648 0-20.21376 20.20352-20.21376 52.96128 0 73.17504L475.42272 552.66304z" /></svg>