<?xml version="1.0" standalone="no"?><!DOCTYPE svg PUBLIC "-//W3C//DTD SVG 1.1//EN" "http://www.w3.org/Graphics/SVG/1.1/DTD/svg11.dtd"><svg class="icon" width="200px" height="200.00px" viewBox="0 0 1024 1024" version="1.1" xmlns="http://www.w3.org/2000/svg"><path d="M157.72672 552.6528c-20.20352-20.20352-20.20352-52.95104 0-73.1648L475.42272 161.792c10.09664-10.0864 23.33696-15.14496 36.57728-15.14496s26.48064 5.04832 36.57728 15.14496l317.68576 317.696c20.20352 20.21376 20.20352 52.96128 0 73.1648s-52.96128 20.20352-73.17504 0L512 271.55456 230.90176 552.6528C210.688 572.84608 177.93024 572.84608 157.72672 552.6528zM548.57728 471.33696C538.48064 461.25056 525.24032 456.192 512 456.192s-26.48064 5.05856-36.57728 15.14496L157.72672 789.03296c-20.20352 20.21376-20.20352 52.97152 0 73.17504s52.96128 20.20352 73.17504 0L512 581.09952l281.09824 281.09824c20.21376 20.20352 52.97152 20.20352 73.17504 0s20.20352-52.96128 0-73.17504L548.57728 471.33696z" /></svg>