<?xml version="1.0" standalone="no"?><!DOCTYPE svg PUBLIC "-//W3C//DTD SVG 1.1//EN" "http://www.w3.org/Graphics/SVG/1.1/DTD/svg11.dtd"><svg t="1628757940214" class="icon" viewBox="0 0 1024 1024" version="1.1" xmlns="http://www.w3.org/2000/svg" p-id="2106" xmlns:xlink="http://www.w3.org/1999/xlink" width="200" height="200"><defs><style type="text/css"></style></defs><path d="M531.21611786 334.1697998a96.4050293 96.4050293 0 1 1 96.4050293-96.40502929 96.62750244 96.62750244 0 0 1-96.40502929 96.4050293zM325.89194488 410.75617981a88.11790466 88.11790466 0 1 1 88.11790467-88.11790466 88.24768067 88.24768067 0 0 1-88.11790466 88.11790466zM238.77516937 610.07357788a77.75436401 77.75436401 0 1 1 77.75436401-77.6802063A77.86560059 77.86560059 0 0 1 238.77516937 610.07357788z m87.13531495 197.31513977a65.88912964 65.88912964 0 1 1 65.88912964-65.88912963A66.01890564 66.01890564 0 0 1 325.91048431 807.38871765zM531.21611786 882.78857422a57.47222901 57.47222901 0 1 1 57.472229-57.47222901 57.47222901 57.47222901 0 0 1-57.47222899 57.47222901z m208.34609985-97.14660645a46.47834778 46.47834778 0 1 1 46.47834779-46.47834777 46.60812378 46.60812378 0 0 1-46.47834778 46.47834778z m85.28137208-214.87197876a38.11706543 38.11706543 0 1 1 38.13560485-38.11706542 38.098526 38.098526 0 0 1-38.11706542 38.11706542z m-114.94445802-245.29518127a29.66308594 29.66308594 0 1 1 8.69499207 20.89393616 29.34791565 29.34791565 0 0 1-8.69499206-20.89393616z" p-id="2107"></path></svg>