<?xml version="1.0" encoding="utf-8"?>
<!-- Generator: Adobe Illustrator 22.1.0, SVG Export Plug-In . SVG Version: 6.00 Build 0)  -->
<svg version="1.1" id="图层_1" xmlns="http://www.w3.org/2000/svg" xmlns:xlink="http://www.w3.org/1999/xlink" x="0px" y="0px"
	 viewBox="0 0 18 18" style="enable-background:new 0 0 18 18;" xml:space="preserve">
<style type="text/css">
</style>
<g id="_x2D_更多">
	<g id="Color">
		<path id="path-1_1_" class="st0" d="M9,7c1.1,0,2,0.9,2,2s-0.9,2-2,2s-2-0.9-2-2S7.9,7,9,7z M16,7c1.1,0,2,0.9,2,2s-0.9,2-2,2
			s-2-0.9-2-2S14.9,7,16,7z M2,7c1.1,0,2,0.9,2,2s-0.9,2-2,2s-2-0.9-2-2S0.9,7,2,7z"/>
	</g>
</g>
</svg>
