<?xml version="1.0" standalone="no"?><!DOCTYPE svg PUBLIC "-//W3C//DTD SVG 1.1//EN" "http://www.w3.org/Graphics/SVG/1.1/DTD/svg11.dtd"><svg t="1640076660881" class="icon" viewBox="0 0 1024 1024" version="1.1" xmlns="http://www.w3.org/2000/svg" p-id="4852" xmlns:xlink="http://www.w3.org/1999/xlink" width="200" height="200"><defs><style type="text/css"></style></defs><path d="M512 1024C230.4 1024 0 793.6 0 512S230.4 0 512 0s512 230.4 512 512-230.4 512-512 512z m286.72-701.44c-25.6-25.6-35.84-25.6-61.44 0l-307.2 250.88-112.64-102.4c-25.6-25.6-66.56-25.6-92.16 0s-25.6 61.44 0 81.92l158.72 143.36c15.36 15.36 30.72 20.48 46.08 20.48 15.36 0 35.84-5.12 46.08-15.36l322.56-322.56c25.6-25.6 25.6-30.72 0-56.32z" p-id="4853"></path></svg>
