<?xml version="1.0" encoding="utf-8"?>
<!-- Generator: Adobe Illustrator 22.1.0, SVG Export Plug-In . SVG Version: 6.00 Build 0)  -->
<svg version="1.1" id="图层_1" xmlns="http://www.w3.org/2000/svg" xmlns:xlink="http://www.w3.org/1999/xlink" x="0px" y="0px"
	 viewBox="0 0 14 14" style="enable-background:new 0 0 14 14;" xml:space="preserve">
<style type="text/css">
	.st0{fill:none;stroke:#C5CCDB;}
	.st1{fill:#C5CCDB;}
	.st2{fill:#C5CCDB;}
</style>
<g id="问号">
	<g id="小问号">
		<g>
			<circle id="椭圆形备份" class="st0" cx="7" cy="7" r="6.5"/>
			<g id="编组备份" transform="translate(5.000000, 3.200000)">
				<path id="形状" class="st1" d="M2.1,0c0.6,0,1,0.2,1.4,0.5C3.8,0.8,4,1.3,4,1.9c0,0.5-0.1,0.9-0.3,1.2
					C3.6,3.2,3.3,3.4,2.9,3.8C2.8,4,2.6,4.1,2.6,4.3C2.5,4.5,2.4,4.7,2.4,4.9v0.2H1.5V4.9c0-0.4,0.1-0.7,0.2-0.9
					c0.1-0.3,0.5-0.7,1-1.2l0.1-0.2C2.9,2.4,3,2.2,3,2c0-0.3-0.1-0.6-0.3-0.8C2.6,1,2.3,0.9,2,0.9C1.6,0.9,1.3,1,1.2,1.3
					C1,1.5,0.9,1.8,0.9,2.3H0C0,1.6,0.2,1,0.6,0.6C0.9,0.2,1.4,0,2.1,0L2.1,0z"/>
			</g>
			<path id="矩形备份-12" class="st1" d="M7,9.2L7,9.2c0.4,0,0.8,0.3,0.8,0.8l0,0c0,0.4-0.3,0.8-0.8,0.8l0,0
				c-0.4,0-0.8-0.3-0.8-0.8l0,0C6.2,9.6,6.6,9.2,7,9.2z"/>
		</g>
	</g>
	<g id="小问号_1_">
		<g>
			<path id="椭圆形备份_1_" class="st2" d="M7,0c3.9,0,7,3.1,7,7s-3.1,7-7,7s-7-3.1-7-7S3.1,0,7,0z M7,1C3.7,1,1,3.7,1,7
				s2.7,6,6,6s6-2.7,6-6S10.3,1,7,1z"/>
			<g id="编组备份_1_" transform="translate(5.000000, 3.200000)">
				<path id="形状_1_" class="st2" d="M3.5,0.5C3.8,0.8,4,1.3,4,1.9c0,0.5-0.1,0.9-0.3,1.2C3.6,3.2,3.3,3.4,2.9,3.8
					C2.8,4,2.6,4.1,2.6,4.3C2.5,4.5,2.4,4.7,2.4,4.9v0.2H1.5V4.9c0-0.4,0.1-0.7,0.2-0.9c0.1-0.3,0.5-0.7,1-1.2l0.1-0.2
					C2.9,2.4,3,2.2,3,2c0-0.3-0.1-0.6-0.3-0.8C2.6,1,2.3,0.9,2,0.9C1.6,0.9,1.3,1,1.2,1.3C1,1.5,0.9,1.8,0.9,2.3H0
					C0,1.6,0.2,1,0.6,0.6C0.9,0.2,1.4,0,2.1,0C2.7,0,3.1,0.2,3.5,0.5z"/>
			</g>
			<path id="矩形备份-12_1_" class="st2" d="M7,9.2L7,9.2c0.4,0,0.8,0.3,0.8,0.8l0,0c0,0.4-0.3,0.8-0.8,0.8l0,0
				c-0.4,0-0.8-0.3-0.8-0.8l0,0C6.2,9.6,6.6,9.2,7,9.2z"/>
		</g>
	</g>
</g>
</svg>
