<?xml version="1.0" standalone="no"?><!DOCTYPE svg PUBLIC "-//W3C//DTD SVG 1.1//EN" "http://www.w3.org/Graphics/SVG/1.1/DTD/svg11.dtd"><svg t="1637896342372" class="icon" viewBox="0 0 1024 1024" version="1.1" xmlns="http://www.w3.org/2000/svg" p-id="2270" xmlns:xlink="http://www.w3.org/1999/xlink" width="200" height="200"><defs><style type="text/css"></style></defs><path d="M823 691.1L701.6 573.6c25.5-44.7 40.1-96.1 40.1-150.8 0-172.5-144.5-312.3-322.7-312.3S96.4 250.3 96.4 422.8 240.8 735.1 419 735.1c56.5 0 109.6-14.1 155.8-38.9l121.4 117.6c35 33.9 91.8 33.9 126.8 0 35-33.8 35-88.8 0-122.7zM186 422.8c0-124.4 104.5-225.6 233-225.6s233 101.2 233 225.6-104.5 225.6-233 225.6-233-101.2-233-225.6z" p-id="2271"></path></svg>
